<svg width="146" height="123" viewBox="0 0 146 123" fill="none" xmlns="http://www.w3.org/2000/svg">
<g clip-path="url(#clip0_107_2)">
<rect width="146" height="123" fill="white"/>
<mask id="mask0_107_2" style="mask-type:luminance" maskUnits="userSpaceOnUse" x="0" y="0" width="146" height="123">
<path d="M146 0H0.193237V123H146V0Z" fill="white"/>
</mask>
<g mask="url(#mask0_107_2)">
<path opacity="0.051" d="M60.6943 123L0 90.6238L41.772 68.3467L102.466 100.72L60.6943 123Z" fill="black"/>
<path d="M101.171 34.9955L92.6788 30.4661L73.2918 20.1247L25.4156 45.6666L44.8311 56.0301L53.2918 60.5443L74.3425 71.7736L122.199 46.2331L122.22 46.222L101.171 34.9955Z" fill="#FFDDA7"/>
<path d="M73.2917 20.8117L26.712 45.6665L74.3469 70.8871L120.927 46.2248L73.2917 20.8117Z" fill="#DDA766"/>
<path d="M73.2917 20.8117V65.6374L79.0816 68.4174L120.927 46.222L73.2917 20.8117Z" fill="#AA6737"/>
<path d="M74.3425 71.7625V115.749L53.3368 104.633L44.8311 100.137L25.4156 89.8565V45.6665L44.8311 56.0301L53.3368 60.5539L74.3425 71.7625Z" fill="#EBAB54"/>
<path d="M74.3454 71.7694V115.746L122.201 90.3773V46.2331L74.3454 71.7694Z" fill="#CA9761"/>
<path d="M72.5138 20.4363L54.4008 0.670395L7.30377 25.1582V26.1527L25.4156 45.6665L26.4033 45.7565L72.5273 21.1773L72.5138 20.4363Z" fill="#BC7C45"/>
<path d="M7.30377 25.1776L26.4048 45.7552L73.2932 20.7895L73.2767 20.0484L55.0843 0L7.30377 25.1776Z" fill="#ECC793"/>
<path d="M97.325 1.2577L74.0621 20.8601L120.927 46.3549L122.262 46.204L145.219 26.589L144.868 25.8757L98.0234 0.8657L97.325 1.2577Z" fill="#BC7C45"/>
<path d="M120.925 46.3591L144.868 25.8785L97.2665 0.436348L96.5696 0.824184L73.0834 20.6455L120.925 46.3591Z" fill="#ECC793"/>
<path d="M73.2932 65.3286L68.626 67.826L74.4129 70.8899L79.0816 68.4188L73.2932 65.3286Z" fill="#C68B50"/>
<path d="M69.4922 81.7992L54.0501 73.2667V66.6846L69.4922 73.2667V81.7992Z" fill="white"/>
<path d="M49.2614 81.2271L42.4254 78.069V55.4539L49.2614 58.612V81.2271Z" fill="#FBF2D2"/>
<path d="M1.18549 38.9722L26.4752 45.823L74.3454 70.8898L74.3333 71.7167L48.8088 65.8909L1.18549 39.7575V38.9722Z" fill="#DDA766"/>
<path d="M26.5741 45.6665L1.18854 38.9722L48.8148 65.0875L74.3469 70.8898L26.5741 45.6665Z" fill="#ECC793"/>
<path d="M121.561 46.9353L74.3454 70.8871L74.3589 71.8068L98.3517 77.2158L145.998 52.1324V51.3886L121.561 46.9353Z" fill="#BC7C45"/>
<path d="M120.927 46.222L74.3454 70.8871L98.3517 76.465L146 51.3885L122.22 46.222H120.927Z" fill="#ECC793"/>
<path d="M34.5223 86.2815L29.1911 83.8173C28.9932 83.7259 28.8314 83.7993 28.8314 83.9836V88.9091C28.8419 89.013 28.8793 89.1127 28.9423 89.2C29.0052 89.2872 29.0906 89.3579 29.1911 89.4064L34.5223 91.8691C34.7201 91.9606 34.8805 91.8857 34.8805 91.7029V86.7774C34.87 86.6735 34.8326 86.5738 34.7696 86.4879C34.7081 86.4006 34.6227 86.33 34.5223 86.2815ZM34.6047 91.3068C34.6047 91.4951 34.4414 91.5713 34.236 91.4771L29.4863 89.2831C29.3844 89.2332 29.296 89.1598 29.2315 89.0712C29.1671 88.9825 29.1281 88.8786 29.1176 88.772V84.3853C29.1176 84.1969 29.2825 84.1207 29.4863 84.2149L34.236 86.4089C34.3394 86.4588 34.4264 86.5308 34.4908 86.6209C34.5553 86.7095 34.5942 86.812 34.6047 86.9187V91.3068Z" fill="#5B677E"/>
<path d="M30.8847 89.1473L30.5475 88.9908V85.6097L30.8847 85.7648V89.1473Z" fill="#5B677E"/>
<path d="M30.7153 85.2454L30.2567 85.8812L30.7153 86.0931L31.174 86.305L30.7153 85.2454Z" fill="#5B677E"/>
<path d="M33.1614 90.2L32.8242 90.0435V86.6624L33.1614 86.8189V90.2Z" fill="#5B677E"/>
<path d="M32.9935 86.2981L32.5349 86.9352L32.9935 87.1472L33.4522 87.3591L32.9935 86.2981Z" fill="#5B677E"/>
<path d="M29.7831 89.1016V88.7899L33.9273 90.7056V91.0172L29.7831 89.1016Z" fill="#5B677E"/>
<path d="M41.6925 89.5947L36.3613 87.132C36.1634 87.0405 36.0031 87.1139 36.0031 87.2968V92.2237C36.0135 92.3276 36.051 92.4273 36.114 92.5132C36.1754 92.6005 36.2609 92.6711 36.3613 92.7196L41.6925 95.1824C41.8903 95.2738 42.0507 95.2004 42.0507 95.0175V90.0906C42.0402 89.9881 42.0028 89.887 41.9398 89.8011C41.8784 89.7138 41.7929 89.6432 41.6925 89.5947ZM41.7749 94.6214C41.7749 94.8098 41.6116 94.8846 41.4062 94.7904L36.6565 92.5963C36.5546 92.5465 36.4662 92.4744 36.4017 92.3844C36.3373 92.2957 36.2983 92.1933 36.2878 92.0866V87.6985C36.2878 87.5101 36.4527 87.4339 36.6565 87.5281L41.4062 89.7222C41.5096 89.772 41.5966 89.8441 41.661 89.9341C41.7255 90.0227 41.7644 90.1252 41.7749 90.2333V94.6214Z" fill="#5B677E"/>
<path d="M40.2852 92.0492C40.0574 91.9397 39.8625 91.7791 39.7202 91.581C39.5763 91.3829 39.4893 91.1558 39.4669 90.9189V89.1792L41.0975 89.9354V91.6752C41.1005 92.0893 40.7363 92.2583 40.2852 92.0492Z" fill="#5B677E"/>
<path d="M40.3796 93.8401L40.1893 93.7515V91.9328L40.3796 92.0215V93.8401Z" fill="#5B677E"/>
<path d="M39.4698 93.5437C39.4698 93.4454 39.5553 93.4066 39.6602 93.4551L40.9102 94.0327C40.9627 94.0576 41.0091 94.0964 41.0421 94.1421C41.0751 94.1878 41.096 94.2418 41.1005 94.2972L39.4698 93.5437Z" fill="#5B677E"/>
<path d="M36.9548 88.0184V89.7582C36.9773 89.995 37.0657 90.2222 37.2081 90.4203C37.3505 90.617 37.5454 90.779 37.7732 90.8884C38.2243 91.0962 38.593 90.9272 38.593 90.5103V88.7706L36.9548 88.0184ZM38.4147 90.4341C38.4147 90.7638 38.1254 90.8981 37.7672 90.7361C37.5873 90.6474 37.433 90.52 37.3205 90.3621C37.2066 90.2056 37.1377 90.0255 37.1197 89.8371V88.2484L38.4162 88.8467L38.4147 90.4341Z" fill="#5B677E"/>
<path d="M37.8661 92.678L37.6743 92.5894V90.7707L37.8661 90.8593V92.678Z" fill="#5B677E"/>
<path d="M36.9548 92.3816C36.9548 92.2833 37.0403 92.2445 37.1452 92.293L38.3952 92.8706C38.4491 92.8955 38.4941 92.9343 38.5271 92.98C38.5616 93.0257 38.581 93.0797 38.587 93.1351L36.9548 92.3816Z" fill="#5B677E"/>
<path d="M48.8643 92.9079L43.5331 90.4466C43.3352 90.3551 43.1749 90.4299 43.1749 90.6128V95.5383C43.1854 95.6422 43.2228 95.7419 43.2858 95.8292C43.3487 95.9165 43.4327 95.9871 43.5331 96.0356L48.8643 98.4983C49.0636 98.5898 49.2225 98.5163 49.2225 98.3335V93.4038C49.2135 93.2999 49.1746 93.2002 49.1131 93.1143C49.0502 93.0271 48.9647 92.9564 48.8643 92.9079ZM48.9467 97.9346C48.9467 98.1216 48.7834 98.1978 48.578 98.1036L43.8283 95.9095C43.7264 95.8597 43.638 95.7876 43.5735 95.6976C43.5091 95.6089 43.4701 95.5065 43.4596 95.3998V91.0117C43.4596 90.8233 43.6245 90.7471 43.8283 90.8413L48.578 93.0354C48.6814 93.0852 48.7684 93.1573 48.8328 93.2473C48.8973 93.3359 48.9362 93.4384 48.9467 93.5451V97.9346Z" fill="#5B677E"/>
<path d="M45.1143 93.8651C45.2102 93.8388 45.3121 93.8318 45.4111 93.8429C45.51 93.8554 45.6059 93.8858 45.6928 93.9329C45.9222 94.0438 46.12 94.203 46.2714 94.3983C46.3658 94.3734 46.4662 94.3665 46.5651 94.379C46.6626 94.39 46.7585 94.4205 46.8439 94.4662C47.0732 94.5784 47.2711 94.7377 47.4225 94.933C47.5184 94.9081 47.6173 94.9012 47.7162 94.9122C47.8151 94.9247 47.9096 94.9538 47.995 95.0009C48.0445 95.023 48.0909 95.048 48.1374 95.0771C48.0549 94.566 47.8436 94.0812 47.5214 93.6601C47.1991 93.239 46.775 92.8927 46.2819 92.6503C45.3121 92.2029 44.5148 92.5215 44.4279 93.3581C44.4608 93.3692 44.4938 93.383 44.5283 93.3983C44.7606 93.5077 44.9614 93.6684 45.1143 93.8651Z" fill="#5B677E"/>
<path d="M45.8966 96.5813C45.7587 96.5134 45.6403 96.4151 45.5534 96.2946C45.4665 96.1755 45.414 96.037 45.4005 95.8929V95.8056C45.4005 95.753 45.447 95.7295 45.5009 95.7572C45.5294 95.771 45.5549 95.7918 45.5714 95.8167C45.5894 95.8417 45.5999 95.8694 45.6029 95.8998V95.9871C45.6118 96.0716 45.6418 96.1533 45.6928 96.224C45.7452 96.2946 45.8142 96.3528 45.8951 96.3916C46.06 96.4677 46.1874 96.4054 46.1874 96.2572V92.4384C46.1874 92.3871 46.2338 92.3636 46.2893 92.3913C46.3178 92.4051 46.3418 92.4245 46.3597 92.4495C46.3777 92.4744 46.3882 92.5035 46.3912 92.5326V96.3514C46.3912 96.6049 46.1709 96.706 45.8966 96.5813Z" fill="#5B677E"/>
<path d="M74.2 76.8847V71.4896C74.2 71.4896 71.5052 88.6528 74.2 115.253V108.397C73.3862 97.9055 73.3862 87.3744 74.2 76.8847Z" fill="#CA9761"/>
<path d="M74.2 112.937V72.3539C73.3996 85.8715 73.3996 99.4195 74.2 112.937Z" fill="#AC7C47"/>
</g>
</g>
<defs>
<clipPath id="clip0_107_2">
<rect width="146" height="123" fill="white"/>
</clipPath>
</defs>
</svg>
